<svg xmlns="http://www.w3.org/2000/svg" width="80" height="60" viewBox="-15.312 -5.708 80 60"><path fill="#7A7A7A" d="M11.184 31.106a3.87 3.87 0 0 0-3.866 3.866 3.87 3.87 0 0 0 3.866 3.866 3.87 3.87 0 0 0 3.867-3.866 3.87 3.87 0 0 0-3.867-3.866zm0 5.734c-1.029 0-1.866-.838-1.866-1.867s.837-1.866 1.866-1.866c1.029 0 1.867.837 1.867 1.866s-.838 1.867-1.867 1.867zM38.469 31.106a3.87 3.87 0 0 0-3.865 3.866 3.869 3.869 0 0 0 3.865 3.866 3.869 3.869 0 0 0 3.866-3.866 3.87 3.87 0 0 0-3.866-3.866zm0 5.734a1.867 1.867 0 0 1 0-3.733c1.029 0 1.866.837 1.866 1.866s-.837 1.867-1.866 1.867z"/><path fill="#BCBCBC" d="M18.828 34.079h11.863v2H18.828z"/><path fill="#7A7A7A" d="M47.188 19.64h-1.242V3.508A3.514 3.514 0 0 0 42.438 0H6.845a3.511 3.511 0 0 0-3.508 3.508V19.64H2.068A2.07 2.07 0 0 0 0 21.708v6.144a2.07 2.07 0 0 0 2.068 2.068h1.269v9.18c0 1.205.611 2.268 1.538 2.9v4.226A2.277 2.277 0 0 0 7.149 48.5h4.354a2.276 2.276 0 0 0 2.273-2.274v-3.618H35.82v3.618a2.277 2.277 0 0 0 2.275 2.274h4.353a2.277 2.277 0 0 0 2.274-2.274v-4.353h-.162a3.494 3.494 0 0 0 1.385-2.773v-9.18h1.242a2.07 2.07 0 0 0 2.068-2.068v-6.144a2.069 2.069 0 0 0-2.067-2.068zM6.845 40.607a1.51 1.51 0 0 1-1.508-1.508v-9.151h38.606V39.1a1.51 1.51 0 0 1-1.508 1.508l-35.59-.001zm37.098-12.659H5.337V6.937h38.606v21.011zM6.845 2h35.592c.83 0 1.508.677 1.508 1.508v1.429H5.337V3.508A1.51 1.51 0 0 1 6.845 2zM2 27.852l.068-6.212h1.269v6.25L2 27.852zm9.776 18.374a.274.274 0 0 1-.273.274H7.149a.274.274 0 0 1-.274-.274v-3.618h4.901v3.618zm30.947 0a.274.274 0 0 1-.273.274h-4.354a.274.274 0 0 1-.273-.274v-3.618h4.615c.098 0 .189-.021.285-.029v3.647zm4.465-18.306h-1.242v-6.25l1.312.038-.07 6.212z"/></svg>