<svg xmlns="http://www.w3.org/2000/svg" viewBox="0 0 454.366 454.366" width="80" height="60">
<g>
	<path d="M205.951,204.953c-40.42,0-75.734,22.262-94.339,55.165c-1.981-0.651-4.061-1.004-6.166-1.004   c-10.892,0-19.752,8.861-19.752,19.752c0,8.56,5.483,15.845,13.114,18.58c-0.758,5.161-1.157,10.438-1.157,15.806   c0,59.717,48.583,108.3,108.3,108.3s108.3-48.583,108.3-108.3S265.668,204.953,205.951,204.953z M97.694,278.867   c0-4.275,3.478-7.752,7.752-7.752c0.242,0,0.477,0.038,0.715,0.06c-1.942,4.589-3.571,9.341-4.872,14.225   C99.132,284.021,97.694,281.611,97.694,278.867z M205.951,409.553c-53.1,0-96.3-43.2-96.3-96.3s43.2-96.3,96.3-96.3   s96.3,43.2,96.3,96.3S259.051,409.553,205.951,409.553z" fill="#7A7A7A"/>
	<path d="M205.951,242.646c-38.933,0-70.606,31.674-70.606,70.606s31.674,70.606,70.606,70.606s70.606-31.674,70.606-70.606   S244.884,242.646,205.951,242.646z M205.951,371.859c-32.315,0-58.606-26.291-58.606-58.606s26.291-58.606,58.606-58.606   s58.606,26.291,58.606,58.606S238.267,371.859,205.951,371.859z" fill="#7A7A7A"/>
	<path d="M205.951,260.805c-3.313,0-6,2.687-6,6s2.687,6,6,6c22.304,0,40.448,18.145,40.448,40.448c0,3.313,2.687,6,6,6s6-2.687,6-6   C258.399,284.333,234.871,260.805,205.951,260.805z" fill="#7A7A7A"/>
	<path d="M393.997,195.302h-0.202c0.249-0.659,0.391-1.37,0.391-2.116c0-3.313-2.687-6-6-6h-42c-3.313,0-6,2.687-6,6   c0,0.746,0.142,1.457,0.391,2.116h-34.644c-8.772,0-16.618-5.562-19.521-13.84c-4.588-13.08-16.983-21.868-30.846-21.868h-10.38   v-15.546c12.735-2.283,22.433-13.435,22.433-26.816V27.251C267.619,12.225,255.394,0,240.367,0h-68.832   c-15.026,0-27.252,12.225-27.252,27.251v89.981c0,13.546,9.937,24.812,22.903,26.9v15.461h-10.851   c-13.862,0-26.258,8.788-30.846,21.868c-2.903,8.279-10.749,13.841-19.521,13.841h-45.6c-20.419,0-37.03,16.611-37.03,37.03   v185.004c0,20.418,16.611,37.03,37.03,37.03h333.628c20.419,0,37.03-16.612,37.03-37.03V232.332   C431.027,211.914,414.416,195.302,393.997,195.302z M171.535,12h68.832c8.41,0,15.252,6.842,15.252,15.251v63.874h-99.336V27.251   C156.283,18.842,163.125,12,171.535,12z M156.283,117.232v-14.107h99.336v14.107c0,8.41-6.842,15.251-15.252,15.251h-68.832   C163.125,132.483,156.283,125.642,156.283,117.232z M179.187,144.483h54v15.11h-54V144.483z M35.339,417.336V232.332   c0-13.801,11.229-25.03,25.03-25.03h45.6c13.861,0,26.257-8.788,30.846-21.869c2.903-8.278,10.748-13.84,19.521-13.84h99.23   c8.773,0,16.618,5.562,19.521,13.84c4.589,13.08,16.984,21.868,30.846,21.868h32.253v235.064H60.369   C46.567,442.366,35.339,431.138,35.339,417.336z M419.027,417.336c0,13.802-11.229,25.03-25.03,25.03h-43.811V207.302h43.811   c13.802,0,25.03,11.229,25.03,25.03V417.336z" fill="#7A7A7A" />
</g>
</svg>
