<svg version="1.1" id="Layer_1" xmlns="http://www.w3.org/2000/svg" xmlns:xlink="http://www.w3.org/1999/xlink" width="80" height="60" viewBox="0 0 511.992 511.992">
	<g fill="#7A7A7A">
		<path d="M501.32,448.054H10.672C4.781,448.054,0,452.835,0,458.742c0,5.875,4.781,10.656,10.672,10.656H501.32
			c5.891,0,10.672-4.781,10.672-10.656C511.992,452.835,507.211,448.054,501.32,448.054z"/>
		<path d="M60.545,208.175c0.719,3.672,3.297,6.695,6.812,7.977l56.359,20.515l-62.062,35.671
			c-3.593,2.078-5.655,6.047-5.312,10.188c0.359,4.125,3.093,7.672,6.983,9.094l62.688,22.812c1.172,0.438,2.406,0.656,3.641,0.656
			c0.734,0,1.484-0.094,2.203-0.25l130.935-27.562l146.92,53.483c1.172,0.422,2.406,0.641,3.639,0.641
			c0.422,0,0.859-0.031,1.281-0.078c0.531-0.062,13.328-1.641,27.25-5.953c20.812-6.469,33.578-15.812,37.922-27.781
			c4.359-11.953,0.594-27.312-11.203-45.646c-7.891-12.258-16.672-21.68-17.047-22.078c-1.141-1.227-2.562-2.156-4.125-2.734
			L138.155,124.567l-24.719-52.999c-1.188-2.562-3.359-4.547-6.016-5.516L44.734,43.241c-3.609-1.32-7.656-0.586-10.578,1.914
			c-2.922,2.5-4.281,6.383-3.531,10.156L60.545,208.175z M130.452,293.338L92.17,279.416l107.561-61.85l106.529,38.765
			L130.452,293.338z M95.967,84.592l24.719,52.991c1.188,2.562,3.359,4.547,6.016,5.516l310.916,113.162
			c2.688,3.07,8.219,9.694,13.203,17.452c7.422,11.625,10.766,21.562,8.938,26.593c-1.828,5.016-10.781,10.469-23.938,14.594
			c-8.797,2.75-17.297,4.281-21.328,4.906l-112.186-40.843l44.875-9.445c4.656-0.984,8.109-4.929,8.438-9.679
			c0.344-4.75-2.516-9.148-6.984-10.781l-146.263-53.233c-2.953-1.078-6.234-0.797-8.969,0.773l-45.499,26.164l-67.593-24.593
			L55.187,69.74L95.967,84.592z"/>
	</g>
</svg>
