<svg xmlns="http://www.w3.org/2000/svg" width="75.333" height="61.688" viewBox="4.521 0 75.333 61.688"><path fill="#FFF" d="M32.646 50.496c-.036.521.074 1.523-.222 1.933l-.447.037c-2.08 0-2.972-2.267-3.308-3.977-.185-.894-.557-1.747-.631-2.678l-.113-.223-.111-.073h-1.375c-1.188 0-2.378.222-3.567.222-.186 0-.334.372-.371.521-.558 1.45-1.041 4.646-1.041 6.207l-.222.223c-.074.036-.112.036-.224.036-.409 0-1.449.113-1.562-.408.707-3.827 1.228-6.876 2.008-10.927.781-3.977 1.562-8.064 2.677-11.968.297-1.151 1.486-.929 2.267-.557.52.261.557 2.044.631 2.677.262 2.416 3.346 16.277 4.238 17.914.631 1.151.78.557 1.3.893l.073.148zm-9.29-6.801c1.078-.111 2.117-.072 3.196-.147.185 0 .965-.037.965-.222 0-.894-1.671-8.848-2.006-9.553l-.113-.037c-.41 1.04-2.194 8.845-2.23 9.848l.188.111zM45.769 30.584v13.789l-.187.11c-.967-.224-1.599-.036-2.564-.187-2.639-4.571-3.864-9.588-5.5-14.754-.262-.781-.447-1.785-.854-2.452-.113 1.747-.263 3.417-.263 5.092 0 3.752.149 6.728.149 10.479 0 .483-.074 1.005-.297 1.448a4.01 4.01 0 0 1-1.153.149c-.297 0-.595-.035-.892-.111-.15-.407-.112-1.076-.112-1.522 0-5.834.409-11.707.409-17.544 0-.596.072-1.3-.297-1.747-.707-.892-1.229-.631-1.229-1.858 0-.41.111-.781.596-.781 1.15 0 2.268.15 3.418.299l.336.334c.297 1.672.967 3.27 1.448 4.906 1.337 4.498 3.233 8.847 4.646 13.344l.147.11c0-.557-.034-1.15-.034-1.71 0-4.795.109-12.189.146-16.984.111-.669 2.343-1.041 2.343-.299.004 1.675-.256 9.258-.256 9.889zM50.471 28.799c0-2.565-.262-5.166-.262-7.73 0-1.97.148-3.977.148-5.945 0-.894-.072-1.896-1.15-2.118-.187-.521-.149-1.079-.225-1.599.782-.743 4.796-.595 6.059-.595 2.23 0 5.428.111 6.691 2.305 1.188 2.118 1.15 6.207 1.15 8.474 0 2.601 0 7.99-.893 10.332-1.189 3.123-3.902 3.605-6.914 3.605-.408 0-4.867.334-4.867-.707.001-2.008.263-4.015.263-6.022zm2.231 4.497c.594.038 1.188.148 1.781.148 6.469 0 5.91-2.861 5.91-8.064 0-2.119.373-4.235.373-6.355 0-4.905-1.414-5.797-5.985-5.797-1.524 0-1.782.074-2.563.074 0 5.314.074 11.968.074 17.282 0 .892.072 1.785.261 2.637l.149.075zM19.521 15.723c-.078-.125-.149-.278-.042-.345.087-.058.511-.447.618-.514.92-.507 1.133-.837 2.041-1.359.43-.222 1.088-.71 1.524-.961 1.134-.638 1.679-1.031 2.828-1.683.332-.184 1.134-.836 1.464-1.02.733-.411 1.374-.964 2.103-1.421.796-.503 1.384-.947 2.203-1.413.277-.148 1.406-1.108 1.695-.771.219.232.174.161.336.456.233.373.273.397-.056.581-.581.339-.833.525-1.442.857-.872.5-1.667 1.124-2.552 1.606-.561.328-1.407.911-2.013 1.243-.296.162-1.019.666-1.303.847-1.193.7-1.833 1.179-3.048 1.844-.785.443-3.165 2.091-3.733 2.722-.324-.314-.394-.269-.623-.669zM48.692 55.83c-.076-.123-.146-.276-.04-.345.086-.056.509-.444.615-.512.92-.507 1.133-.837 2.04-1.358.432-.224 1.09-.71 1.525-.962 1.133-.638 1.679-1.031 2.828-1.682.33-.184 1.133-.837 1.463-1.021.732-.411 1.375-.965 2.103-1.421.798-.505 1.383-.947 2.204-1.415.275-.147 1.406-1.107 1.695-.771.219.232.174.162.334.457.236.373.274.396-.054.581-.581.339-.835.525-1.442.857-.871.5-1.668 1.124-2.553 1.606-.562.328-1.406.91-2.014 1.242-.295.162-1.018.665-1.302.845-1.193.7-1.832 1.178-3.046 1.845-.786.443-3.166 2.092-3.734 2.722-.323-.312-.394-.265-.622-.668zM20.654 21.127a48.159 48.159 0 0 0 2.195-1.351c.999-.635 1.963-1.249 2.985-1.852s2.021-1.239 2.999-1.911c.841-.583 2.364-1.311 3.559-2.171.599-.43 2.45-1.705 3.944-2.707.6-.43 1.218-.824 1.875-1.243.17-.108.344-.218.516-.329a27.582 27.582 0 0 0 2.732-1.644c.412-.263.861-.549 1.295-.778.231-.096.471-.103.5.024.111.171.172.423.248.617.033.125-.062.28-.268.412a5.5 5.5 0 0 1-1.38.879c-.802.413-1.597.92-2.376 1.369-.537.293-.682.529-1.221.824-.539.294-1.053.624-1.571.952-.942.651-2.039 1.444-2.039 1.444l-1.964 1.251c-.33.164-1.909 1.264-2.851 1.914l-1.895 1.207-1.071.682c-.068.042-.193.075-.24.153-.507.42-1.103.702-1.653 1.053-.691.44-1.436.866-2.117 1.395-.457.343-.905.629-1.377.879-.894.423-1.665.963-2.492 1.488-.539.295-1.067.682-1.641.998l-.45.286c-.298.142-.502.125-.589-.011a.715.715 0 0 1-.204-.55c.004-.147.098-.305.248-.448.368-.333.773-.688 1.255-.995.38-.242.758-.483 1.046-.714.719-.402 1.317-.832 2.002-1.123zM42.143 52.052a48.63 48.63 0 0 0 2.193-1.35c1-.637 1.965-1.249 2.985-1.853a51.525 51.525 0 0 0 2.999-1.911c.842-.583 2.364-1.311 3.561-2.171.598-.43 2.449-1.704 3.945-2.706.598-.43 1.217-.824 1.873-1.243l.516-.328a27.515 27.515 0 0 0 2.732-1.645c.413-.263.862-.549 1.297-.778.23-.097.469-.103.5.023.108.172.17.424.246.618.033.124-.062.281-.267.412a5.463 5.463 0 0 1-1.382.878c-.801.414-1.596.92-2.373 1.369-.538.294-.682.529-1.223.824-.537.294-1.054.623-1.572.952-.942.65-2.036 1.442-2.036 1.442l-1.966 1.252c-.33.164-1.908 1.264-2.853 1.913-.616.395-1.274.812-1.894 1.207l-1.07.683c-.068.042-.193.074-.24.152-.507.42-1.104.702-1.652 1.053-.69.44-1.437.865-2.116 1.396-.46.343-.908.629-1.38.88-.893.423-1.664.963-2.491 1.488-.539.296-1.067.682-1.642.998-.139.09-.312.197-.449.285-.299.144-.502.125-.59-.011a.708.708 0 0 1-.203-.55c.004-.147.097-.305.248-.448.367-.332.772-.687 1.254-.995.381-.241.759-.481 1.047-.713.718-.402 1.318-.831 2.003-1.123z"/></svg>