<svg xmlns="http://www.w3.org/2000/svg" width="150.75" height="46.5" viewBox="0 0 150.75 46.5"><path fill-rule="evenodd" clip-rule="evenodd" d="M.233 28.629h8.14c3.724 0 7.525.812 7.525 4.847 0 1.531-.843 3.038-2.526 3.525v.141c2.093.672 3.419 2.062 3.419 4.15 0 3.595-3.674 4.824-7.042 4.824H.233V28.629zm7.119 6.726c1.021 0 2.17-.092 2.17-1.3 0-1.298-1.303-1.205-2.323-1.205h-.485v2.505h.638zm-.638 6.588h.79c1.148 0 2.807-.023 2.807-1.462 0-1.461-1.785-1.438-2.908-1.438h-.689v2.9zM17.911 28.629h14.111v4.778h-6.43v1.671h5.873v4.546h-5.873v1.717h6.652v4.776H17.911V28.629zM41.939 28.629l2.63 4.569h.251c.25-.556.467-1.113.782-1.646l1.691-2.922h9.643l-8.078 9.95v7.538h-8.391V38.58l-8.235-9.95h9.707v-.001z"/><path fill-rule="evenodd" clip-rule="evenodd" d="M81.208 37.419c0 5.614-6.289 8.977-14.024 8.977-7.734 0-14.023-3.362-14.023-8.977 0-5.496 6.323-9.069 14.023-9.069 7.701 0 14.024 3.573 14.024 9.069zm-18.767.095c0 1.994 1.951 3.361 4.742 3.361 2.792 0 4.741-1.367 4.741-3.361 0-1.856-1.814-3.41-4.741-3.41-2.925 0-4.742 1.553-4.742 3.41zM111.109 28.629h14.559c13.202 0 23.326 2.574 23.326 8.999 0 5.195-8.246 8.489-19.779 8.489H111.11V28.629h-.001zm14.298 12.246h.887c4.748 0 8.4-.974 8.4-3.27 0-2.459-3.183-3.502-8.4-3.502h-.887v6.772zM145.893 28.82a2.32 2.32 0 0 1 2.341-2.329 2.32 2.32 0 0 1 2.342 2.329 2.32 2.32 0 0 1-2.342 2.33 2.32 2.32 0 0 1-2.341-2.33zm4.325 0c0-1.099-.915-1.971-1.984-1.971s-1.982.872-1.982 1.971c0 1.099.913 1.971 1.982 1.971s1.984-.872 1.984-1.971zm-.872 1.26h-.431l-.764-1.176h-.431v1.176h-.357v-2.551h1.11c.459 0 .907.126.907.675 0 .502-.353.688-.806.7l.772 1.176zm-1.195-1.534c.317 0 .872.059.872-.347 0-.263-.347-.311-.623-.311h-.68v.657h.431v.001zM91.806 28.641h-9.453V46.13h9.418v-8.897l8.34 8.897h9.419V28.641h-9.419v9.064l-8.305-9.064zM.187.484h2.825c4.363 0 8.477 1.136 8.477 6.357 0 1.688-.921 3.654-2.487 4.392v.061c2.733.493 4.637 3.163 4.637 5.867 0 4.638-3.961 6.481-8.046 6.481H.187V.484zm2.887 10.258h.736c2.735 0 4.977-.553 4.977-3.871 0-3.255-2.213-3.807-4.914-3.807h-.799v7.678zm0 10.319h2.211c2.672 0 5.468-.797 5.468-4.084 0-3.255-3.318-3.933-5.898-3.933H3.074v8.017zM15.326.484h12.439v2.64h-9.552v6.481h9.275v2.641h-9.275V21h9.552v2.642H15.326V.484zM30.467.484h4.791c7.095 0 12.993 3.746 12.993 11.456 0 7.893-5.775 11.702-13.085 11.702h-4.699V.484zM33.354 21h1.014c5.896 0 10.996-2.212 10.996-8.938 0-6.757-5.099-8.938-10.996-8.938h-1.014V21zM56.376.484h2.826c4.361 0 8.477 1.136 8.477 6.357 0 1.688-.921 3.654-2.488 4.392v.061c2.734.493 4.638 3.163 4.638 5.867 0 4.638-3.961 6.481-8.046 6.481h-5.407V.484zm2.888 10.258h.737c2.733 0 4.975-.553 4.975-3.871 0-3.255-2.21-3.807-4.914-3.807h-.798v7.678zm0 10.319h2.212c2.672 0 5.465-.797 5.465-4.084 0-3.255-3.315-3.933-5.896-3.933h-1.781v8.017zM75.417 17.835l-2.642 5.806h-3.103L80.73-.5l11.057 24.142h-3.103l-2.641-5.806H75.417v-.001zM80.73 5.828l-4.116 9.366h8.232L80.73 5.828zM96.887 23.642h-2.888V3.124h-5.498V.484h13.883v2.64h-5.497v20.518zM117.856 9.82V.484h2.888v23.158h-2.888v-11.12h-11.025v11.12h-2.887V.484h2.887V9.82h11.025zM142.324 20.508c-1.751 2.058-4.208 3.625-6.941 3.625-3.869 0-7.096-2.825-7.096-6.818 0-2.95 1.844-4.546 4.056-6.143l1.444-1.044c-1.321-1.383-2.55-3.103-2.55-5.069 0-3.194 2.303-5.066 5.343-5.066 2.827 0 5.345 1.78 5.345 4.821 0 2.61-2.272 4.361-4.208 5.774l4.822 5.835 2.703-3.132 1.843 1.903-2.826 3.318 4.146 5.129h-3.562l-2.519-3.133zm-7.125-8.107c-1.597 1.105-4.208 2.67-4.208 4.883 0 2.211 2.088 4.269 4.3 4.269 2.15 0 3.869-1.627 5.313-3.071l-5.129-6.266-.276.185zm1.26-4.055c1.166-.921 2.765-1.874 2.765-3.562 0-1.628-1.168-2.52-2.704-2.52-1.381 0-2.58.984-2.58 2.457 0 1.168.706 2.028 1.384 2.888l.766.983.369-.246z"/></svg>