<svg xmlns="http://www.w3.org/2000/svg" width="175.75" height="25.25" viewBox="0 0 175.75 25.25"><g fill-rule="evenodd" clip-rule="evenodd"><path d="M92.341 24.43l-1.723-2.152c-1.398 1.4-4.52 2.799-6.78 2.799-3.875 0-7.211-2.799-7.211-6.457 0-4.52 4.305-6.996 5.596-7.426-.861-1.076-2.367-2.906-2.367-5.166.107-3.013 1.937-5.381 5.919-5.381 3.444 0 6.027 2.26 6.027 5.596 0 3.767-2.906 5.058-3.767 5.812l2.798 3.981c.753-.969 1.507-3.336 1.399-3.766H96s-.538 4.734-2.691 6.994l3.982 5.166h-4.95zM85.883 4.197c-1.184 0-2.152.969-2.044 1.938.107 1.292 1.184 2.152 1.83 3.013.861-.646 2.368-1.506 2.368-2.906-.001-1.076-.863-2.045-2.154-2.045zm-1.399 10.01c-3.659 2.475-3.444 4.197-3.444 4.197 0 1.721 1.614 2.689 2.798 2.797 1.399 0 3.444-1.184 4.413-2.045l-3.767-4.949zM20.125 10.762c-.861-3.444-3.982-6.242-7.641-6.242-4.628 0-8.072 3.66-7.964 8.072.108 4.305 3.444 7.641 7.964 7.641 4.305 0 6.78-3.121 7.318-5.166h4.52c-.969 6.35-7.103 9.688-11.946 9.688C6.888 24.754 0 20.232 0 12.592 0 5.381 5.489 0 12.484 0c5.919 0 11.3 4.52 12.054 10.762h-4.413zM56.717 24.539c-3.551 0-4.197-2.584-4.197-3.982v-10.44h-2.26V6.78h2.26V1.614h4.52v5.381h2.906v3.121H57.04v9.364c0 2.367 2.906 1.613 3.336 1.721v3.338h-3.659zM29.812 16.574v7.855h-4.413V7.318h4.305V9.04c.646-.861 1.937-1.83 3.336-2.26.969-.107 1.938 0 1.938 0v4.197c-2.261-.645-5.382.323-5.166 5.597z"/><path d="M63.713 16.896c0 2.26 2.152 3.982 4.413 3.982 1.614 0 2.583-.646 3.444-1.938h4.628c-.646 3.014-3.767 5.812-7.856 5.812-5.274 0-9.041-3.982-9.041-9.578 0-4.306 3.229-8.718 8.502-8.611 6.026.108 8.717 5.274 8.609 10.332H63.713v.001zm3.982-6.779c-1.937-.108-3.767 1.399-3.767 3.551h7.533c0-2.152-1.721-3.551-3.766-3.551zM46.385 24.43c0 .109-.107-.645-.323-1.398-.753.646-2.475 1.938-5.166 1.938-3.013 0-6.457-1.83-6.457-5.381 0-2.152 1.399-4.951 6.242-5.598 2.798-.43 4.951-.215 5.058-1.721.107-.539-.43-2.368-3.229-2.368-1.291 0-2.906.43-3.229 2.476h-3.875c0-3.014 1.83-5.597 7.534-5.597 3.552 0 7.103 1.507 7.103 5.382v9.471c.108.969.431 2.26.753 2.797h-4.411v-.001zm-7.964-4.95c.108 1.828 2.475 2.152 2.906 1.936 0 0 2.368 0 3.444-1.184.646-.859.969-1.936.646-4.305-4.305.969-6.996 1.401-6.996 3.553zM171.443 1.399h4.305V24.43h-4.305V1.399zM148.734 16.682v7.748h-4.412V7.426h4.305v1.722c.754-.861 1.938-1.937 3.337-2.26a5.53 5.53 0 0 1 2.045 0v4.197c-2.476-.646-5.489.323-5.275 5.597zM138.08 16.682v7.748h-4.52V7.426h4.412v1.722c.753-.861 1.938-1.937 3.336-2.26.969-.215 1.938 0 1.938 0v4.197c-2.26-.646-5.381.323-5.166 5.597zM157.99 17.004c0 2.152 2.152 3.875 4.413 3.875 1.506 0 2.583-.537 3.443-1.938h4.521c-.538 3.014-3.659 5.812-7.749 5.812-5.166 0-9.04-3.982-9.04-9.471 0-4.306 3.229-8.718 8.502-8.61 5.919 0 8.718 5.273 8.502 10.331H157.99v.001zm4.09-6.887c-2.045 0-3.874 1.399-3.874 3.551h7.533c0-2.044-1.614-3.551-3.659-3.551zM109.56 24.43H97.506V1.292h10.439c3.552 0 7.211 1.614 7.211 5.919 0 3.551-2.798 4.305-3.443 4.843 2.044.646 4.305 2.583 4.305 6.351 0 4.089-3.983 6.025-6.458 6.025zm-2.583-19.479h-5.165v5.704h4.95c1.076 0 3.659-.43 3.659-3.121 0-1.83-1.829-2.583-3.444-2.583zm0 9.149h-5.165v6.779h5.488c.754 0 3.659-.646 3.659-3.121 0-1.399-.322-3.658-3.982-3.658zM128.609 24.43c0 .109-.215-.645-.323-1.398-.753.646-2.476 1.938-5.165 1.938-3.014 0-6.458-1.83-6.458-5.381 0-2.152 1.399-4.844 6.35-5.598 2.583-.43 4.843-.215 4.951-1.721.107-.431-.431-2.261-3.229-2.261-1.292 0-2.799.323-3.122 2.476h-3.981c0-3.013 2.045-5.596 7.533-5.596 3.444 0 6.996 1.506 7.104 5.381v8.824c0 .754.323 2.691.646 3.336h-4.306zm-7.425-4.95c0 1.828 2.475 2.152 2.905 1.936 0 0 2.368 0 3.337-1.184.646-.859.86-1.828.646-4.305-4.198 1.077-6.888 1.401-6.888 3.553z"/></g></svg>