<svg xmlns="http://www.w3.org/2000/svg" width="151.208" height="42.501" viewBox="0 -8.709 151.208 42.501"><path d="M150.104 5.825c0-1.458-.601-2.861-1.693-3.953-1.17-1.171-2.771-1.844-4.394-1.844a5.804 5.804 0 0 0-5.798 5.797c0 3.106 1.479 4.779 5.467 6.171 4.149 1.563 6.012 3.43 6.012 6.045a5.927 5.927 0 0 1-5.918 5.922c-1.547 0-3.025-.64-4.164-1.793-1.266-1.283-1.993-3.105-2.097-5.183l-1.291.005c.101 2.417.969 4.562 2.47 6.083 1.38 1.404 3.185 2.177 5.082 2.177 1.928 0 3.733-.75 5.098-2.112a7.164 7.164 0 0 0 2.112-5.099c0-4.192-3.918-6.149-6.865-7.258-3.454-1.208-4.615-2.458-4.615-4.958 0-1.203.47-2.336 1.32-3.184a4.474 4.474 0 0 1 3.188-1.32c1.279 0 2.55.532 3.48 1.466.851.845 1.314 1.924 1.314 3.037h1.292v.001zM106.479 23.673c-6.123 0-11.091-4.969-11.091-11.094 0-6.123 4.968-11.088 11.091-11.088 4.389 0 8.185 2.549 9.979 6.25l1.54-.027C116.097 3.225 111.658.08 106.479.08c-6.902 0-12.501 5.597-12.501 12.5 0 6.906 5.599 12.502 12.501 12.502 5.202 0 9.663-3.176 11.545-7.694l-1.566.036a11.09 11.09 0 0 1-9.979 6.249zM91.852 6.833C89.77 2.82 85.584.079 80.753.079c-6.906 0-12.504 5.597-12.504 12.5 0 6.906 5.599 12.502 12.504 12.502 4.831 0 9.016-2.741 11.098-6.755v6.823h1.413V.716h-1.413v6.117zm-11.099 16.84c-6.124 0-11.094-4.969-11.094-11.094 0-6.123 4.97-11.088 11.094-11.088 6.123 0 11.088 4.965 11.088 11.088.001 6.125-4.965 11.094-11.088 11.094zM57.844.163c-3.917 0-7.262 2.422-8.636 5.851C47.834 2.586 44.49.163 40.572.163c-3.358 0-6.293 1.786-7.93 4.456V.716h-1.407V25.15h1.407V8.625a7.975 7.975 0 0 1 7.93-7.132c4.154 0 7.552 3.171 7.933 7.226V25.15h1.407V8.719c.379-4.054 3.78-7.226 7.932-7.226 4.264 0 7.738 3.351 7.953 7.563h-.024v16.093h1.41V9.057h-.059c-.217-4.949-4.282-8.894-9.28-8.894zM127.257 22.9L118.353.718h-1.482l9.624 24.064-3.624 8.933 1.543.056L137.851.718h-1.598zM140.897-4.746l-.615-1.895-.617 1.895h-2.006l1.624 1.178-.613 1.892 1.61-1.172 1.617 1.177-.614-1.9 1.616-1.175zM16.315 9.716L13.208.181l-3.104 9.535H0l8.187 5.927-3.101 9.538 8.111-5.902 8.157 5.929-3.115-9.582 8.148-5.91z"/></svg>