<svg xmlns="http://www.w3.org/2000/svg" width="11.172" height="10.328" viewBox="0 0 11.172 10.328"><path d="M1.855 6.866C.784 6.866 0 5.553 0 4.582c0-.65.348-1.333 1.079-1.333 1.072 0 1.855 1.319 1.855 2.291 0 .649-.342 1.326-1.079 1.326zm7.577 2.438c0 .851-.697.985-1.38.985-.897 0-1.621-.603-2.479-.603-.897 0-1.661.596-2.632.596-.65 0-1.226-.221-1.226-.978 0-1.587 2.217-3.945 3.858-3.945s3.859 2.365 3.859 3.945zm-5.46-5.359c-1.085 0-1.742-1.366-1.742-2.304C2.23.891 2.619 0 3.483 0c1.092 0 1.742 1.367 1.742 2.304 0 .751-.389 1.641-1.253 1.641zm1.949-1.641c0-.937.65-2.304 1.742-2.304.864 0 1.253.891 1.253 1.641 0 .938-.657 2.304-1.742 2.304-.864 0-1.253-.89-1.253-1.641zm5.225 2.278c0 .971-.784 2.284-1.855 2.284-.737 0-1.079-.677-1.079-1.327 0-.971.784-2.291 1.855-2.291.731.001 1.079.684 1.079 1.334z"/></svg>